<svg width="136" height="25" viewBox="0 0 136 25" fill="none" xmlns="http://www.w3.org/2000/svg">
<path d="M77.1 20.18C75.3533 20.18 74.06 19.7867 73.22 19C72.38 18.2 71.9067 16.9667 71.8 15.3H74.36C74.4267 16.26 74.6667 16.94 75.08 17.34C75.5067 17.7267 76.18 17.92 77.1 17.92C78.06 17.92 78.76 17.74 79.2 17.38C79.6533 17.02 79.88 16.58 79.88 16.06C79.88 15.54 79.6867 15.14 79.3 14.86C78.9133 14.58 78.4267 14.3533 77.84 14.18C77.2533 13.9933 76.62 13.82 75.94 13.66C75.26 13.4867 74.6267 13.2533 74.04 12.96C73.4533 12.6667 72.9667 12.2667 72.58 11.76C72.1933 11.2533 72 10.5733 72 9.72C72 9.16 72.1067 8.64667 72.32 8.18C72.5333 7.7 72.8467 7.28667 73.26 6.94C73.6867 6.58 74.22 6.30667 74.86 6.12C75.5 5.92 76.2467 5.82 77.1 5.82C78.8067 5.82 80.0533 6.19333 80.84 6.94C81.64 7.67333 82.0933 8.79333 82.2 10.3H79.64C79.5733 9.5 79.3467 8.92667 78.96 8.58C78.5867 8.23333 77.96 8.06 77.08 8.06C76.1733 8.06 75.52 8.22667 75.12 8.56C74.72 8.88 74.52 9.27333 74.52 9.74C74.52 10.2333 74.7133 10.6133 75.1 10.88C75.4867 11.1333 75.9733 11.3467 76.56 11.52C77.1467 11.6933 77.78 11.8667 78.46 12.04C79.14 12.2 79.7733 12.4333 80.36 12.74C80.9467 13.0333 81.4333 13.4467 81.82 13.98C82.2067 14.5 82.4 15.2067 82.4 16.1C82.4 16.7 82.2933 17.2533 82.08 17.76C81.8667 18.2533 81.54 18.68 81.1 19.04C80.6733 19.4 80.1267 19.68 79.46 19.88C78.7933 20.08 78.0067 20.18 77.1 20.18ZM88.0016 15.3L82.8016 6H85.5216L89.2416 12.84L92.8016 6H95.4016L90.4016 15.3V20H88.0016V15.3ZM100.249 10.8L99.4094 8.98V20H97.0094V6H100.369L105.169 15.2L106.009 17.04V6H108.409V20H105.049L100.249 10.8ZM110.109 6H121.109V8.12H116.809V20H114.409V8.12H110.109V6ZM131.81 13.86H125.21V20H122.81V6H125.21V11.74H131.81V6H134.21V20H131.81V13.86Z" fill="#79FF39"/>
<g clip-path="url(#clip0)">
<g clip-path="url(#clip1)">
<path fill-rule="evenodd" clip-rule="evenodd" d="M13.0435 25C20.2472 25 26.087 19.4036 26.087 12.5C26.087 5.59644 20.2472 0 13.0435 0C5.83976 0 0 5.59644 0 12.5C0 19.4036 5.83976 25 13.0435 25Z" fill="white"/>
<path fill-rule="evenodd" clip-rule="evenodd" d="M13.0436 4.54297L16.3567 9.49417L13.0436 14.4596L9.73047 9.49417L13.0436 4.54297Z" fill="black"/>
<path d="M23.5229 12.5018C23.5229 12.5007 23.5229 12.4995 23.5229 12.4984H23.5228C23.5205 12.2358 23.2976 12.0234 23.0229 12.0234C22.7482 12.0234 22.5254 12.2358 22.523 12.4984H22.5229C22.5229 17.515 18.2794 21.5818 13.0447 21.5818C7.80997 21.5818 3.56641 17.515 3.56641 12.4984H3.56632C3.56397 12.2358 3.3411 12.0234 3.06641 12.0234C2.79171 12.0234 2.56884 12.2358 2.56649 12.4984H2.56641C2.56641 12.4995 2.56641 12.5007 2.56641 12.5018C2.56641 12.502 2.56641 12.5024 2.56641 12.5026C2.56641 12.5031 2.56641 12.5035 2.56641 12.504C2.56954 18.0473 7.25962 22.5401 13.0447 22.5401C18.8297 22.5401 23.5198 18.0473 23.5229 12.504C23.5229 12.5035 23.5229 12.5031 23.5229 12.5026C23.5229 12.5024 23.5229 12.502 23.5229 12.5018Z" fill="black"/>
</g>
<path fill-rule="evenodd" clip-rule="evenodd" d="M67.7593 18.3951L67.4658 18.665C66.7823 19.2939 66.2264 19.5627 65.3505 19.9007C64.4692 20.2462 63.6611 20.4221 62.6421 20.4221C61.631 20.4221 60.6727 20.2491 59.7707 19.9011L59.7672 19.8997L59.7638 19.8983C58.8839 19.54 58.1082 19.0604 57.4398 18.4589L57.4366 18.456L57.4336 18.4532C56.7795 17.8381 56.2568 17.1228 55.8657 16.31L55.8641 16.3066L55.8625 16.3031C55.4768 15.457 55.293 14.2906 55.293 13.3698C55.293 12.4335 55.4823 11.5519 55.8634 10.7291L55.8641 10.7278L55.8647 10.7264C56.2556 9.90068 56.7785 9.17823 57.4336 8.56212L57.4351 8.56068L57.4366 8.55925C58.1062 7.94325 58.8842 7.46205 59.7672 7.11557C60.6614 6.75747 61.47 6.57422 62.4915 6.57422C63.5089 6.57422 64.4534 6.7685 65.3495 7.11423C66.2471 7.46051 67.0333 7.94195 67.7042 8.55925L68.0007 8.83207L66.4436 10.2349L66.1763 9.9956C65.7043 9.57306 65.147 9.23617 64.5003 8.98628L64.496 8.98462L64.4918 8.98287C63.8566 8.72049 63.3368 8.59546 62.6421 8.59546C61.9512 8.59546 61.2949 8.72463 60.6697 8.98287L60.6681 8.98356L60.6664 8.98423C60.0482 9.23308 59.4953 9.57614 59.0059 10.0145L59.0058 10.0146C58.5353 10.4358 58.1585 10.94 57.876 11.5309L57.8753 11.5322L57.8747 11.5335C57.5969 12.1027 57.4572 12.7133 57.4572 13.3698C57.4572 14.0207 57.5972 14.8913 57.8563 15.4485C58.1254 16.0139 58.4899 16.5205 58.9516 16.9697C59.425 17.4044 59.9761 17.7525 60.6078 18.0134C61.2303 18.2706 61.9069 18.4008 62.6421 18.4008C63.3271 18.4008 63.8512 18.2866 64.5034 18.0468C65.1701 17.7891 65.4753 17.6467 65.9303 17.2167L66.2007 16.9612L67.7593 18.3951Z" fill="white"/>
<path fill-rule="evenodd" clip-rule="evenodd" d="M39.8525 20.3347L38.8508 17.9723C36.6922 19.0527 34.022 19.0658 31.853 18.0218L30.7923 20.3347H28.3906L34.0283 6.57812H36.6473L42.2611 20.3347H39.8525ZM32.554 16.0516C33.9998 17.0823 36.2412 17.1385 37.7472 16.1483L37.7532 16.1443L38.1074 15.9295L35.3388 9.10781L32.554 16.0516Z" fill="white"/>
<path fill-rule="evenodd" clip-rule="evenodd" d="M47.1092 6.5L47.1119 6.50004C48.1144 6.51359 49.0688 6.69679 49.9723 7.05074C50.8859 7.40313 51.6862 7.8927 52.3693 8.52014C53.0675 9.13551 53.6169 9.86685 54.0168 10.7109C54.4208 11.5505 54.6212 12.4566 54.6212 13.4245C54.6212 14.3802 54.4205 15.2853 54.0179 16.1358C53.6322 16.9675 53.0972 17.6984 52.4145 18.3262L52.413 18.3276L52.4115 18.3289C51.7289 18.9429 50.9299 19.4318 50.0182 19.7969L50.0169 19.7974L50.0155 19.7979C49.1087 20.1533 48.1378 20.3297 47.1065 20.3297H42.8984V6.5H47.1092ZM52.015 11.5374L52.0131 11.5332C51.7377 10.9303 51.3593 10.4154 50.8779 9.98473L50.8741 9.98132L50.8704 9.97781C50.402 9.5352 49.8403 9.18574 49.1803 8.93087L49.1761 8.92925L49.172 8.92754C48.5325 8.66352 47.8453 8.53037 47.1065 8.53037H45.0742V18.2993H47.1031C47.8302 18.2868 48.5138 18.1531 49.1567 17.8998C49.8049 17.6443 50.3699 17.2996 50.8549 16.866C51.3404 16.4192 51.7275 15.9005 52.017 15.3075C52.3021 14.7237 52.4454 14.0975 52.4454 13.4245C52.4454 12.7516 52.3021 12.1254 52.017 11.5416L52.015 11.5374Z" fill="white"/>
</g>
<defs>
<clipPath id="clip0">
<rect width="68" height="25" fill="white"/>
</clipPath>
<clipPath id="clip1">
<rect width="26.087" height="25" fill="white"/>
</clipPath>
</defs>
</svg>
